<svg width="50" height="32" viewBox="0 0 50 32" fill="none" xmlns="http://www.w3.org/2000/svg">
<path d="M2.89855 0H47.1014C48.7023 0 50 1.30244 50 2.90909V29.0909C50 30.6976 48.7023 32 47.1014 32H2.89855C1.29773 32 0 30.6976 0 29.0909V2.90909C0 1.30244 1.29773 0 2.89855 0Z" fill="white" stroke="#CCCCCC"/>
<mask id="mask0_1421_319" style="mask-type:luminance" maskUnits="userSpaceOnUse" x="6" y="10" width="37" height="12">
<path fill-rule="evenodd" clip-rule="evenodd" d="M24.8939 13.9849C24.8737 15.6026 26.316 16.5054 27.4025 17.0421C28.5189 17.5928 28.8938 17.9459 28.8896 18.4384C28.881 19.1921 27.999 19.5247 27.1735 19.5377C25.7333 19.5604 24.8961 19.1435 24.2303 18.8282L23.7115 21.2893C24.3794 21.6014 25.6161 21.8735 26.8987 21.8854C29.909 21.8854 31.8785 20.3789 31.8892 18.0431C31.9009 15.0788 27.8446 14.9147 27.8723 13.5897C27.8819 13.1879 28.26 12.7592 29.0887 12.6502C29.4989 12.5951 30.6312 12.553 31.9148 13.1523L32.4186 10.7712C31.7284 10.5163 30.841 10.2722 29.7364 10.2722C26.9029 10.2722 24.9099 11.7992 24.8939 13.9849ZM37.26 10.4781C36.7104 10.4781 36.247 10.8031 36.0403 11.302L31.7401 21.7111H34.7482L35.3469 20.034H39.0229L39.3702 21.7111H42.0215L39.7079 10.4781H37.26ZM37.6808 13.5119L38.549 17.73H36.1714L37.6808 13.5119ZM21.2466 10.4781L18.8754 21.7111L21.7419 21.7111L24.112 10.4781H21.2466ZM17.006 10.4774L14.0223 18.123L12.8154 11.6221C12.6737 10.8964 12.1145 10.4774 11.4935 10.4774H6.61584L6.54767 10.8036C7.54897 11.0238 8.68663 11.3791 9.37582 11.7593C9.79765 11.9914 9.91802 12.1944 10.0565 12.7463L12.3425 21.7104H15.3719L20.0163 10.4774H17.006Z" fill="white"/>
</mask>
<g mask="url(#mask0_1421_319)">
<path d="M2.83295 11.6592L37.7852 -1.39018L45.7367 20.4988L10.7848 33.5482" fill="url(#paint0_linear_1421_319)"/>
</g>
<defs>
<linearGradient id="paint0_linear_1421_319" x1="2.90773" y1="9.35593" x2="30.3809" y2="-6.11122" gradientUnits="userSpaceOnUse">
<stop stop-color="#222357"/>
<stop offset="1" stop-color="#254AA5"/>
</linearGradient>
</defs>
</svg>
