<svg width="50" height="32" viewBox="0 0 50 32" fill="none" xmlns="http://www.w3.org/2000/svg">
<svg clip-path="url(#clip0_1421_329)">
<rect width="50" height="32" rx="4" fill="url(#paint0_linear_1421_329)"/>
<mask id="mask0_1421_329" style="mask-type:luminance" maskUnits="userSpaceOnUse" x="0" y="0" width="50" height="32">
<rect width="50" height="32" rx="4" fill="white"/>
</mask>
<g mask="url(#mask0_1421_329)">
<rect y="-1.64172" width="50" height="7.23934" fill="black"/>
<path fill-rule="evenodd" clip-rule="evenodd" d="M0 11.7365H50V20.106H0V11.7365Z" fill="black"/>
<rect y="26.3761" width="50" height="6.71475" fill="black"/>
<path fill-rule="evenodd" clip-rule="evenodd" d="M16.4017 14.7955C16.4017 14.7955 16.3933 14.8205 16.2763 15.1544C15.9418 14.8743 15.3814 14.8948 15.3814 15.3256C15.3814 15.831 16.5519 15.7675 16.5155 16.6697C16.4864 17.3941 15.6386 17.5604 14.9846 17.2113C15.0418 17.0837 15.1012 16.9607 15.1417 16.8599C15.6362 17.1675 16.0621 17.0264 16.132 16.7791C16.3232 16.1022 14.9898 16.3113 14.9898 15.3514C14.9898 14.9477 15.4342 14.3201 16.4017 14.7955Z" fill="white"/>
<path fill-rule="evenodd" clip-rule="evenodd" d="M17.754 14.6791H19.3896C19.3896 14.6791 19.3849 14.824 19.3881 15.0304H18.1636V15.7506H19.0321C19.029 15.8941 19.0306 16.0069 19.0306 16.081H18.1636V16.9788H19.3881C19.3872 17.0483 19.3867 17.2584 19.3881 17.3235H17.7556L17.754 14.6791Z" fill="white"/>
<path fill-rule="evenodd" clip-rule="evenodd" d="M21.4799 15.9748C21.3818 15.9748 21.3094 15.9736 21.2099 15.9732C21.2101 15.4795 21.2109 15.018 21.2109 15.018C21.2109 15.018 21.3294 15.0175 21.4414 15.0175C21.5485 15.0175 22.1725 14.9693 22.1926 15.463C22.2124 15.9497 21.7213 15.9748 21.4799 15.9748ZM21.504 14.6832C21.36 14.6798 21.0588 14.6781 20.8017 14.6781L20.8026 17.324H21.2113C21.2113 17.324 21.2101 16.8189 21.2099 16.3209C21.3113 16.3193 21.5216 16.3137 21.6915 16.3089C21.927 16.302 22.5461 16.1852 22.5419 15.4595C22.5369 14.644 21.6472 14.6864 21.504 14.6832Z" fill="white"/>
<path fill-rule="evenodd" clip-rule="evenodd" d="M31.5292 15.9051C31.4366 15.9051 31.3697 15.9033 31.2759 15.9026C31.2762 15.4386 31.2773 15.0111 31.2773 15.0111C31.2773 15.0111 31.3857 15.0095 31.4908 15.0095C31.5912 15.0095 32.1277 14.9786 32.1731 15.4091C32.227 15.9175 31.6388 15.9051 31.5292 15.9051ZM32.4024 17.3239H32.8955L32.0769 16.1386C32.2972 16.056 32.5526 15.8642 32.5204 15.4259C32.4627 14.6408 31.7106 14.699 31.5496 14.6914C31.4139 14.6849 31.122 14.6811 30.8687 14.6824V17.3241H31.2773C31.2773 17.3241 31.2761 16.7329 31.2757 16.2104C31.4111 16.2109 31.4596 16.2084 31.6638 16.2029L32.4024 17.3239Z" fill="white"/>
<path fill-rule="evenodd" clip-rule="evenodd" d="M25.4195 15.7334V14.6937H25.8182V17.3335H25.4195V16.0786L24.0906 16.0804V17.3335H23.6921V14.6937H24.0906V15.7334H25.4195Z" fill="white"/>
<path fill-rule="evenodd" clip-rule="evenodd" d="M28.3377 14.6099C27.5105 14.6099 26.9721 15.2349 26.9721 16.0057C26.9721 16.7768 27.5105 17.4016 28.3377 17.4016C29.1648 17.4016 29.7032 16.7768 29.7032 16.0057C29.7032 15.2349 29.1648 14.6099 28.3377 14.6099ZM28.3376 14.9898C27.7313 14.9898 27.3869 15.4446 27.3869 16.0057C27.3869 16.5668 27.7279 17.0218 28.3376 17.0218C28.9474 17.0218 29.2884 16.5668 29.2884 16.0057C29.2884 15.4446 28.944 14.9898 28.3376 14.9898ZM34.5477 16.4161L35.3939 16.4106L34.964 15.1066H34.9584L34.5477 16.4161ZM34.7335 14.6866H35.2044L36.1364 17.3384L35.7197 17.3374C35.7197 17.3374 35.6276 17.0698 35.5047 16.7154L34.4535 16.7221C34.4535 16.7221 34.4113 16.8586 34.286 17.3375H33.8841L34.7335 14.6866Z" fill="white"/>
<path fill-rule="evenodd" clip-rule="evenodd" d="M16.4017 14.7955C16.4017 14.7955 16.3933 14.8205 16.2763 15.1544C15.9418 14.8743 15.3814 14.8948 15.3814 15.3256C15.3814 15.831 16.5519 15.7675 16.5155 16.6697C16.4864 17.3941 15.6386 17.5604 14.9846 17.2113C15.0418 17.0837 15.1012 16.9607 15.1417 16.8599C15.6362 17.1675 16.0621 17.0264 16.132 16.7791C16.3232 16.1022 14.9898 16.3113 14.9898 15.3514C14.9898 14.9477 15.4342 14.3201 16.4017 14.7955Z" fill="white"/>
<path fill-rule="evenodd" clip-rule="evenodd" d="M17.754 14.6791H19.3896C19.3896 14.6791 19.3849 14.824 19.3881 15.0304H18.1636V15.7506H19.0321C19.029 15.8941 19.0306 16.0069 19.0306 16.081H18.1636V16.9788H19.3881C19.3872 17.0483 19.3867 17.2584 19.3881 17.3235H17.7556L17.754 14.6791Z" fill="white"/>
<path fill-rule="evenodd" clip-rule="evenodd" d="M21.4799 15.9748C21.3818 15.9748 21.3094 15.9736 21.2099 15.9732C21.2101 15.4795 21.2109 15.018 21.2109 15.018C21.2109 15.018 21.3294 15.0175 21.4414 15.0175C21.5485 15.0175 22.1725 14.9693 22.1926 15.463C22.2124 15.9497 21.7213 15.9748 21.4799 15.9748ZM21.504 14.6832C21.36 14.6798 21.0588 14.6781 20.8017 14.6781L20.8026 17.324H21.2113C21.2113 17.324 21.2101 16.8189 21.2099 16.3209C21.3113 16.3193 21.5216 16.3137 21.6915 16.3089C21.927 16.302 22.5461 16.1852 22.5419 15.4595C22.5369 14.644 21.6472 14.6864 21.504 14.6832Z" fill="white"/>
<path fill-rule="evenodd" clip-rule="evenodd" d="M31.5292 15.9051C31.4366 15.9051 31.3697 15.9033 31.2759 15.9026C31.2762 15.4386 31.2773 15.0111 31.2773 15.0111C31.2773 15.0111 31.3857 15.0095 31.4908 15.0095C31.5912 15.0095 32.1277 14.9786 32.1731 15.4091C32.227 15.9175 31.6388 15.9051 31.5292 15.9051ZM32.4024 17.3239H32.8955L32.0769 16.1386C32.2972 16.056 32.5526 15.8642 32.5204 15.4259C32.4627 14.6408 31.7106 14.699 31.5496 14.6914C31.4139 14.6849 31.122 14.6811 30.8687 14.6824V17.3241H31.2773C31.2773 17.3241 31.2761 16.7329 31.2757 16.2104C31.4111 16.2109 31.4596 16.2084 31.6638 16.2029L32.4024 17.3239Z" fill="white"/>
<path fill-rule="evenodd" clip-rule="evenodd" d="M25.4195 15.7334V14.6937H25.8182V17.3335H25.4195V16.0786L24.0906 16.0804V17.3335H23.6921V14.6937H24.0906V15.7334H25.4195Z" fill="white"/>
<path fill-rule="evenodd" clip-rule="evenodd" d="M28.3377 14.6099C27.5105 14.6099 26.9721 15.2349 26.9721 16.0057C26.9721 16.7768 27.5105 17.4016 28.3377 17.4016C29.1648 17.4016 29.7032 16.7768 29.7032 16.0057C29.7032 15.2349 29.1648 14.6099 28.3377 14.6099ZM28.3376 14.9898C27.7313 14.9898 27.3869 15.4446 27.3869 16.0057C27.3869 16.5668 27.7279 17.0218 28.3376 17.0218C28.9474 17.0218 29.2884 16.5668 29.2884 16.0057C29.2884 15.4446 28.944 14.9898 28.3376 14.9898ZM34.5477 16.4161L35.3939 16.4106L34.964 15.1066H34.9584L34.5477 16.4161ZM34.7335 14.6866H35.2044L36.1364 17.3384L35.7197 17.3374C35.7197 17.3374 35.6276 17.0698 35.5047 16.7154L34.4535 16.7221C34.4535 16.7221 34.4113 16.8586 34.286 17.3375H33.8841L34.7335 14.6866Z" fill="white"/>
</g>
</svg>
<defs>
<linearGradient id="paint0_linear_1421_329" x1="-23.2587" y1="16.3529" x2="5.51179" y2="60.0911" gradientUnits="userSpaceOnUse">
<stop stop-color="#FAFAFA"/>
<stop offset="1" stop-color="#F2F2F2"/>
</linearGradient>
<clipPath id="clip0_1421_329">
<rect width="50" height="32" fill="white"/>
</clipPath>
</defs>
</svg>

