<svg width="16" height="16" viewBox="0 0 16 16" fill="none" xmlns="http://www.w3.org/2000/svg">
<path fill-rule="evenodd" clip-rule="evenodd" d="M8 0C12.4183 0 16 3.58171 16 8C16 12.4183 12.4183 16 8 16C3.58171 16 0 12.4183 0 8C0 3.58171 3.58171 0 8 0ZM8 0.726857C3.98286 0.726857 0.726857 3.984 0.726857 8C0.726857 12.0171 3.984 15.2731 8 15.2731C12.0171 15.2731 15.2731 12.016 15.2731 8C15.2731 3.98286 12.016 0.726857 8 0.726857V0.726857ZM8.72686 6.18171V12H9.45486V12.3634H6.54514V12H7.27314V6.54514H6.54514V6.18286H8.728L8.72686 6.18171ZM7.81829 3.27314C8.32114 3.27314 8.72686 3.68 8.72686 4.18171C8.72686 4.68457 8.32 5.09143 7.81829 5.09143C7.31543 5.09143 6.90857 4.68343 6.90857 4.18171C6.90857 3.67886 7.31657 3.27314 7.81829 3.27314Z" fill="#757575"/>
</svg>
