<svg width="11" height="11" viewBox="0 0 11 11" fill="none" xmlns="http://www.w3.org/2000/svg">
<path d="M10.7232 0.602362C10.7232 0.578378 10.6992 0.554393 10.6992 0.530409C10.6992 0.506426 10.6752 0.482443 10.6752 0.458457C10.6752 0.434474 10.6512 0.410491 10.6272 0.386505C10.6272 0.362522 10.6032 0.362522 10.6032 0.338539C10.5553 0.266587 10.4824 0.193713 10.4104 0.145745C10.3865 0.145745 10.3865 0.121761 10.3625 0.121761C10.3385 0.0977782 10.3145 0.0977781 10.2905 0.0737949C10.2665 0.0737949 10.2426 0.0498115 10.2186 0.0498115C10.1946 0.0498115 10.1706 0.0258283 10.1466 0.0258283C10.0987 0.0258283 10.0507 0.00184514 10.0018 0.00184514L4.81952 0C4.53078 0 4.26511 0.168809 4.14519 0.433545C4.02435 0.698291 4.09723 1.01192 4.29002 1.2287L6.38676 3.32544L0.216432 9.54276C-0.0723068 9.8315 -0.0723068 10.29 0.216432 10.5547C0.361257 10.6995 0.554054 10.7715 0.722853 10.7715C0.891661 10.7715 1.08444 10.6995 1.22927 10.5547L7.4218 4.38533L9.51854 6.48207C9.66336 6.62689 9.83216 6.69884 10.025 6.69884C10.1209 6.69884 10.2178 6.67486 10.2897 6.65088C10.5544 6.53004 10.7472 6.26529 10.7472 5.97655V0.747044C10.7472 0.699078 10.7471 0.650328 10.7232 0.602362Z" fill="black"/>
</svg>
